HIERARCHY
ROOT Hips
{
	OFFSET 0.00000 0.00000 0.00000
	CHANNELS 6 Xposition Yposition Zposition Zrotation Yrotation Xrotation 
	JOINT LHipJoint
	{
		OFFSET 0 0 0
		CHANNELS 3 Zrotation Yrotation Xrotation
		JOINT LeftUpLeg
		{
			OFFSET 1.36337 -1.57426 1.11036
			CHANNELS 3 Zrotation Yrotation Xrotation
			JOINT LeftLeg
			{
				OFFSET 2.38468 -6.55187 0.00000
				CHANNELS 3 Zrotation Yrotation Xrotation
				JOINT LeftFoot
				{
					OFFSET 2.37166 -6.51609 0.00000
					CHANNELS 3 Zrotation Yrotation Xrotation
					JOINT LeftToeBase
					{
						OFFSET 0.29078 -0.79891 2.01393
						CHANNELS 3 Zrotation Yrotation Xrotation
						End Site
						{
							OFFSET 0.00000 -0.00000 1.07924
						}
					}
				}
			}
		}
	}
	JOINT RHipJoint
	{
		OFFSET 0 0 0
		CHANNELS 3 Zrotation Yrotation Xrotation
		JOINT RightUpLeg
		{
			OFFSET -1.36349 -1.57426 1.11036
			CHANNELS 3 Zrotation Yrotation Xrotation
			JOINT RightLeg
			{
				OFFSET -2.29562 -6.30717 0.00000
				CHANNELS 3 Zrotation Yrotation Xrotation
				JOINT RightFoot
				{
					OFFSET -2.40985 -6.62100 0.00000
					CHANNELS 3 Zrotation Yrotation Xrotation
					JOINT RightToeBase
					{
						OFFSET -0.23197 -0.63733 1.92232
						CHANNELS 3 Zrotation Yrotation Xrotation
						End Site
						{
							OFFSET -0.00000 -0.00000 1.01562
						}
					}
				}
			}
		}
	}
	JOINT LowerBack
	{
		OFFSET 0 0 0
		CHANNELS 3 Zrotation Yrotation Xrotation
		JOINT Spine
		{
			OFFSET -0.08565 2.03602 -0.24562
			CHANNELS 3 Zrotation Yrotation Xrotation
			JOINT Spine1
			{
				OFFSET -0.00036 2.05693 0.00216
				CHANNELS 3 Zrotation Yrotation Xrotation
				JOINT Neck
				{
					OFFSET 0 0 0
					CHANNELS 3 Zrotation Yrotation Xrotation
					JOINT Neck1
					{
						OFFSET -0.03664 1.69515 0.31789
						CHANNELS 3 Zrotation Yrotation Xrotation
						JOINT Head
						{
							OFFSET 0.00932 1.70181 -0.46013
							CHANNELS 3 Zrotation Yrotation Xrotation
							End Site
							{
								OFFSET 0.01243 1.77620 -0.19377
							}
						}
					}
				}
				JOINT LeftShoulder
				{
					OFFSET 0 0 0
					CHANNELS 3 Zrotation Yrotation Xrotation
					JOINT LeftArm
					{
						OFFSET 3.74344 0.81315 -0.36647
						CHANNELS 3 Zrotation Yrotation Xrotation
						JOINT LeftForeArm
						{
							OFFSET 4.97185 -0.00000 -0.00000
							CHANNELS 3 Zrotation Yrotation Xrotation
							JOINT LeftHand
							{
								OFFSET 3.35811 -0.00000 0.00000
								CHANNELS 3 Zrotation Yrotation Xrotation
								JOINT LeftFingerBase
								{
									OFFSET 0 0 0
									CHANNELS 3 Zrotation Yrotation Xrotation
									JOINT LeftHandIndex1
									{
										OFFSET 0.62278 -0.00000 0.00000
										CHANNELS 3 Zrotation Yrotation Xrotation
										End Site
										{
											OFFSET 0.50210 -0.00000 0.00000
										}
									}
								}
								JOINT LThumb
								{
									OFFSET 0 0 0
									CHANNELS 3 Zrotation Yrotation Xrotation
									End Site
									{
										OFFSET 0.50976 -0.00000 0.50976
									}
								}
							}
						}
					}
				}
				JOINT RightShoulder
				{
					OFFSET 0 0 0
					CHANNELS 3 Zrotation Yrotation Xrotation
					JOINT RightArm
					{
						OFFSET -3.75385 0.50666 -0.06525
						CHANNELS 3 Zrotation Yrotation Xrotation
						JOINT RightForeArm
						{
							OFFSET -4.96493 -0.00000 -0.00000
							CHANNELS 3 Zrotation Yrotation Xrotation
							JOINT RightHand
							{
								OFFSET -3.34929 -0.00000 0.00000
								CHANNELS 3 Zrotation Yrotation Xrotation
								JOINT RightFingerBase
								{
									OFFSET 0 0 0
									CHANNELS 3 Zrotation Yrotation Xrotation
									JOINT RightHandIndex1
									{
										OFFSET -0.63804 -0.00000 0.00000
										CHANNELS 3 Zrotation Yrotation Xrotation
										End Site
										{
											OFFSET -0.51441 -0.00000 0.00000
										}
									}
								}
								JOINT RThumb
								{
									OFFSET 0 0 0
									CHANNELS 3 Zrotation Yrotation Xrotation
									End Site
									{
										OFFSET -0.52226 -0.00000 0.52226
									}
								}
							}
						}
					}
				}
			}
		}
	}
}
MOTION
Frames: 8
Frame Time: .0083333
4.3724 16.8996 -1.4909 0 0 0 0 0 0 -21 0 0 0 0 0 0 0 0 0 0 0 0 0 0 21 0 0 0 0 0 0 0 0 0 0 0 0 0 0 0 0 0 0 0 0 0 0 -16 0 0 21 0 0 11 0 0 0 -8 0 0 0 0 0 0 0 0 0 0 0 0 0 0 0 0 0 0 0 0 8 0 0 0 0 0 0 0 0 0 0 0 0 0 0 0 0 0
4.3724 16.8996 -1.4909 141.0500 -85.9051 -134.7040 0.0000 0.0000 0.0000 -20.9531 -8.0123 -8.0710 2.0825 9.0359 25.9077 1.7405 6.8623 -28.1920 0.2384 3.1424 8.6755 0.0000 0.0000 0.0000 16.2836 2.6685 -10.2229 -1.5064 -7.7518 21.9627 -1.1556 -7.9823 -24.6543 -0.4803 -4.4445 12.3306 -2.5441 0.3714 -9.8440 -1.8824 0.8820 0.5855 -0.4088 0.3698 6.1370 4.2330 11.4056 -19.4829 -20.5133 22.3561 33.7599 -5.4837 6.2408 20.1808 0.0000 0.0000 0.0000 -90.5537 -1.2804 21.6181 11.5504 -19.1270 -1.9525 -0.0000 -0.0000 0.5915 21.4197 -13.1635 -5.1051 -7.1250 0.0000 -0.0000 -4.0690 15.9010 2.8057 0.0000 0.0000 0.0000 93.2824 -3.7359 10.4559 -13.4543 21.9493 -2.6207 0.0000 -0.0000 -1.7238 -8.8156 -29.3076 4.3413 7.1250 -0.0000 -0.0000 24.5420 -57.8464 -8.0351
4.2946 16.8766 -1.4634 132.0130 -85.4450 -125.9500 0.0000 0.0000 0.0000 -22.1539 -7.6779 -7.3666 2.0724 9.0153 25.8432 1.8056 6.5495 -28.4450 0.2318 3.0986 8.5534 0.0000 0.0000 0.0000 14.9830 -1.5866 -11.2977 -1.5358 -7.8236 22.1796 -1.1833 -4.6604 -22.7168 -0.3645 -3.8781 10.7339 -2.9840 0.3275 -10.6162 -2.2034 0.9366 0.8782 -0.4875 0.3753 6.8854 4.4901 11.6097 -19.7851 -20.8989 22.5986 32.8642 -5.5287 6.3872 19.8906 -0.0000 -0.0000 0.0000 -90.6684 -1.0558 21.3983 11.7009 -19.3546 -2.0021 -0.0000 -0.0000 0.5205 21.2846 -12.9698 -4.9969 -7.1250 0.0000 -0.0000 -4.1544 16.1203 2.8451 -0.0000 -0.0000 0.0000 93.2112 -3.7721 9.9651 -13.4399 21.9284 -2.6153 0.0000 -0.0000 -1.6918 -8.8414 -29.1932 4.3387 7.1250 -0.0000 -0.0000 24.4298 -57.7487 -7.9369
4.3656 16.8928 -1.4927 142.3440 -86.1223 -135.8380 0.0000 0.0000 0.0000 -20.6852 -8.0948 -8.2900 2.1040 9.0793 26.0438 1.7530 6.7674 -28.2200 0.2473 3.2000 8.8362 0.0000 0.0000 0.0000 16.4911 2.9913 -10.1466 -1.5188 -7.7821 22.0543 -1.2639 -7.6480 -25.2651 -0.6486 -5.1519 14.3422 -2.4992 0.4010 -9.8487 -1.8778 0.9129 0.5074 -0.4245 0.3872 6.0574 4.8511 11.8272 -20.0775 -21.2946 22.8032 31.8929 -5.5967 6.5400 19.5719 0.0000 -0.0000 0.0000 -90.7391 -0.7812 21.0754 11.9131 -19.6742 -2.0729 -0.0000 -0.0000 0.4146 21.0867 -12.7081 -4.8486 -7.1250 0.0000 -0.0000 -4.2812 16.4170 2.9049 0.0000 -0.0000 0.0000 93.1379 -3.8759 9.7350 -13.5105 22.0306 -2.6417 0.0000 -0.0000 -1.8750 -8.9212 -29.2269 4.3829 7.1250 -0.0000 -0.0000 24.3750 -57.7961 -7.9459
4.3155 16.8644 -1.4705 136.9060 -85.9849 -130.5510 0.0000 0.0000 0.0000 -21.3036 -7.9008 -7.8606 2.0964 9.0640 25.9956 1.7890 6.5457 -28.3313 0.2499 3.2164 8.8818 0.0000 0.0000 0.0000 15.7693 0.4000 -10.6194 -1.5351 -7.8218 22.1743 -1.3447 -5.0801 -24.2651 -0.7342 -5.4742 15.2661 -2.5733 0.3238 -10.3276 -2.1105 0.8542 0.6536 -0.6341 0.3537 6.4872 5.2712 11.9181 -20.1414 -21.6389 22.7165 30.8527 -5.7267 6.6165 19.0877 -0.0000 0.0000 0.0000 -90.7535 -0.5307 20.6844 12.0380 -19.8616 -2.1152 -0.0000 -0.0000 0.0278 21.0118 -12.6374 -4.8035 -7.1250 0.0000 -0.0000 -4.3305 16.4992 2.9308 -0.0000 0.0000 0.0000 93.0742 -4.0406 9.6263 -13.5864 22.1404 -2.6703 0.0000 -0.0000 -2.0275 -9.0137 -28.8758 4.3805 7.1250 -0.0000 -0.0000 24.0212 -57.4982 -7.6462
4.2930 16.8664 -1.4604 134.8820 -85.9817 -128.5190 0.0000 0.0000 0.0000 -21.4971 -7.8467 -7.7680 2.1040 9.0795 26.0442 1.8229 6.3032 -28.4182 0.2571 3.2622 9.0096 0.0000 0.0000 0.0000 15.5821 -1.2262 -11.2506 -1.5206 -7.7866 22.0677 -1.2282 -4.6271 -23.0712 -0.4670 -4.3833 12.1576 -2.6236 0.2181 -10.5076 -2.1833 0.7301 0.6559 -0.7017 0.2906 6.5933 5.6726 12.2003 -20.3398 -22.0942 22.9728 29.7743 -5.8100 6.7977 18.7443 -0.0000 -0.0000 0.0000 -90.8593 -0.3075 20.1262 12.0749 -19.9169 -2.1277 -0.0000 0.0000 -0.3685 21.0809 -12.9467 -4.9361 -7.1250 0.0000 -0.0000 -4.2941 16.1647 2.9372 -0.0000 -0.0000 0.0000 92.9393 -4.2129 9.6200 -13.7250 22.3402 -2.7227 0.0000 -0.0000 -2.3184 -9.0491 -28.8932 4.4004 7.1250 -0.0000 -0.0000 23.9986 -57.5214 -7.6521
4.2964 16.8823 -1.4615 136.1370 -86.1419 -129.6760 0.0000 0.0000 0.0000 -21.2774 -7.8103 -7.8529 2.0888 9.0486 25.9473 1.8152 6.2302 -28.3246 0.2495 3.2141 8.8754 0.0000 0.0000 0.0000 15.8347 -1.0566 -11.5058 -1.5331 -7.8170 22.1597 -1.1726 -5.2454 -22.9720 -0.3431 -3.7640 10.4136 -2.5730 0.1791 -10.3859 -2.1410 0.6595 0.5387 -0.6965 0.2590 6.4001 6.1322 12.4549 -20.3779 -22.5506 23.1561 28.7323 -5.9339 6.9661 18.3880 -0.0000 -0.0000 0.0000 -90.9714 -0.0666 19.6018 12.0570 -19.8900 -2.1216 -0.0000 0.0000 -0.3713 21.1334 -13.2547 -5.0646 -7.1250 0.0000 -0.0000 -4.2699 15.8330 2.9513 -0.0000 -0.0000 0.0000 92.7946 -4.4073 9.4980 -13.8976 22.5882 -2.7887 0.0000 -0.0000 -2.7187 -8.9490 -29.7785 4.4719 7.1250 -0.0000 -0.0000 24.7688 -58.2994 -8.3897
4.3075 16.8905 -1.4642 138.3790 -86.3103 -131.8490 0.0000 0.0000 0.0000 -20.9840 -7.8773 -7.9495 2.0771 9.0249 25.8731 1.7930 6.3371 -28.2371 0.2471 3.1990 8.8333 0.0000 0.0000 0.0000 16.1211 -0.2660 -11.3133 -1.5349 -7.8216 22.1735 -1.1954 -5.7117 -23.4462 -0.4135 -4.1276 11.4358 -2.4823 0.2134 -10.1278 -2.0909 0.6763 0.4127 -0.6920 0.2724 6.1207 6.5181 12.6788 -20.4240 -22.9393 23.3012 27.7543 -6.0293 7.1124 18.0450 -0.0000 -0.0000 0.0000 -91.0805 0.1138 19.1596 12.0016 -19.8070 -2.1028 -0.0000 -0.0000 0.0589 21.0772 -13.2041 -5.0311 -7.1250 0.0000 -0.0000 -4.3066 15.8922 2.9713 -0.0000 -0.0000 0.0000 92.6459 -4.6652 9.2488 -14.1328 22.9242 -2.8796 0.0000 -0.0000 -3.1572 -8.8680 -30.2347 4.4922 7.1250 -0.0000 -0.0000 25.2106 -58.6911 -8.7926
